<svg xmlns:dc="http://purl.org/dc/elements/1.1/" xmlns:cc="http://creativecommons.org/ns#" xmlns:rdf="http://www.w3.org/1999/02/22-rdf-syntax-ns#" xmlns:svg="http://www.w3.org/2000/svg" xmlns="http://www.w3.org/2000/svg" xmlns:xlink="http://www.w3.org/1999/xlink" id="svg77416" viewBox="0 0 1024 768" height="768px" width="1024px" version="1.1">
  <metadata id="metadata77422">
    <rdf:rdf>
      <cc:work rdf:about="">
        <dc:format>image/svg+xml</dc:format>
        <dc:type rdf:resource="http://purl.org/dc/dcmitype/StillImage"></dc:type>
      </cc:work>
    </rdf:rdf>
  </metadata>
  <defs id="defs77420"></defs>
  <linearGradient spreadMethod="pad" y2="30%" x2="-10%" y1="120%" x1="30%" id="3d_gradient2-logo-f32b40ea-014e-4d50-8b76-6043cd2d3986">
    <stop id="stop77397" stop-opacity="1" stop-color="#ffffff" offset="0%" style="--darkreader-inline-stopcolor:#181a1b;" data-darkreader-inline-stopcolor=""></stop>
    <stop id="stop77399" stop-opacity="1" stop-color="#000000" offset="100%" style="--darkreader-inline-stopcolor:#000000;" data-darkreader-inline-stopcolor=""></stop>
  </linearGradient>
  <linearGradient gradientTransform="rotate(-30)" spreadMethod="pad" y2="30%" x2="-10%" y1="120%" x1="30%" id="3d_gradient3-logo-f32b40ea-014e-4d50-8b76-6043cd2d3986">
    <stop id="stop77402" stop-opacity="1" stop-color="#ffffff" offset="0%" style="--darkreader-inline-stopcolor:#181a1b;" data-darkreader-inline-stopcolor=""></stop>
    <stop id="stop77404" stop-opacity="1" stop-color="#cccccc" offset="50%" style="--darkreader-inline-stopcolor:#35393b;" data-darkreader-inline-stopcolor=""></stop>
    <stop id="stop77406" stop-opacity="1" stop-color="#000000" offset="100%" style="--darkreader-inline-stopcolor:#000000;" data-darkreader-inline-stopcolor=""></stop>
  </linearGradient>
  <g id="logo-group">
    <image xlink:href="" id="container" style="display: none;" x="272" y="144" width="480" height="480" transform="translate(0 0)"></image>
    <g id="logo-center" transform="translate(0 0)">
      <image xlink:href="" id="icon_container" style="display: none;" x="0" y="0"></image>
      <g id="slogan" style="font-style:normal;font-weight:400;font-size:32px;line-height:1;font-family:Montserrat;font-variant-ligatures:none;text-align:center;text-anchor:middle" transform="translate(0 0)"></g>
      <g id="title" style="font-style:normal;font-weight:500;font-size:72px;line-height:1;font-family:'Raleway Medium Alt1';font-variant-ligatures:none;text-align:center;text-anchor:middle" transform="translate(0 0)">
        <path id="path77425" style="font-style: normal; font-weight: 500; font-size: 72px; line-height: 1; font-family: &quot;Raleway Medium Alt1&quot;; font-variant-ligatures: none; text-align: center; text-anchor: middle; --darkreader-inline-fill:#454b4e; --darkreader-inline-stroke:#b5afa6;" d="m 371.67313,-51.12 17.13599,41.976 3.24,-7.416 -13.536,-34.56 z m 40.60799,0 -16.84799,42.984 -3.16801,7.416 0.36001,0.72 h 5.61599 l 20.88,-51.12 z" stroke-width="0" stroke-linejoin="miter" stroke-miterlimit="2" fill="#afafaf" stroke="#afafaf" transform="translate(0 327.44224) translate(252.01379439999994 11.5088) scale(1.76) translate(-371.67313 51.12)" data-darkreader-inline-fill="" data-darkreader-inline-stroke=""></path>
        <path id="path77427" style="font-style: normal; font-weight: 500; font-size: 72px; line-height: 1; font-family: &quot;Raleway Medium Alt1&quot;; font-variant-ligatures: none; text-align: center; text-anchor: middle; --darkreader-inline-fill:#4b5154; --darkreader-inline-stroke:#afa89d;" d="m 462.12987,-22.752 c -0.21599,1.512 -0.504,3.024 -1.008,4.464 -0.79199,2.448 -1.94399,4.608 -3.45599,6.48 -1.51201,1.872 -3.384,3.456 -5.47201,4.608 -2.23199,1.152 -4.68,1.728 -7.344,1.728 -2.664,0 -5.04,-0.504 -7.2,-1.656 -2.16,-1.08 -4.03199,-2.592 -5.54399,-4.464 -1.584,-1.872 -2.73601,-3.96 -3.60001,-6.408 -0.504,-1.512 -0.86399,-3.096 -1.07999,-4.752 h -6.55201 c 0.216,2.304 0.72001,4.608 1.584,6.768 1.08,3.168 2.736,5.904 4.89601,8.352 2.08799,2.448 4.608,4.392 7.56,5.832 2.952,1.44 6.26399,2.16 9.86399,2.16 3.456,0 6.62401,-0.648 9.57601,-2.088 2.952,-1.44 5.47199,-3.312 7.632,-5.688 2.15999,-2.376 3.81599,-5.112 5.03999,-8.28 0.86401,-2.232 1.44,-4.608 1.728,-7.056 z m -33.624,-10.152 c 0.792,-2.376 1.94401,-4.464 3.45601,-6.408 1.512,-1.872 3.38399,-3.384 5.54399,-4.536 2.16001,-1.152 4.608,-1.728 7.344,-1.728 2.52,0 4.896,0.576 7.056,1.656 2.16,1.152 3.96001,2.592 5.54401,4.464 1.584,1.872 2.73599,3.96 3.59999,6.408 0.432,1.296 0.79201,2.664 1.008,3.96 h 6.552 c -0.288,-1.944 -0.79199,-3.96 -1.44,-5.832 -1.152,-3.096 -2.808,-5.832 -4.896,-8.352 -2.16,-2.448 -4.67999,-4.392 -7.55999,-5.904 -2.952,-1.512 -6.264,-2.304 -9.79201,-2.304 -3.528,0 -6.696,0.72 -9.648,2.16 -2.952,1.44 -5.472,3.312 -7.63199,5.688 -2.16001,2.448 -3.88801,5.184 -5.11201,8.28 -0.792,2.088 -1.368,4.176 -1.584,6.264 h 6.55201 c 0.216,-1.224 0.57599,-2.52 1.00799,-3.816 z" stroke-width="0" stroke-linejoin="miter" stroke-miterlimit="2" fill="#aaa19f" stroke="#aaa19f" transform="translate(0 327.44224) translate(343.8870967999999 10.8752) scale(1.76) translate(-420.87387 51.48)" data-darkreader-inline-fill="" data-darkreader-inline-stroke=""></path>
        <path id="path77429" style="font-style: normal; font-weight: 500; font-size: 72px; line-height: 1; font-family: &quot;Raleway Medium Alt1&quot;; font-variant-ligatures: none; text-align: center; text-anchor: middle; --darkreader-inline-fill:#51585b; --darkreader-inline-stroke:#a8a095;" d="m 482.22125,-32.76 c 0.72,-2.376 1.872,-4.536 3.384,-6.408 1.44,-1.872 3.312,-3.456 5.472,-4.608 2.16,-1.152 4.68,-1.8 7.56,-1.8 1.296,0 2.592,0.144 3.96,0.432 1.296,0.288 2.592,0.792 3.888,1.44 1.224,0.72 2.448,1.584 3.528,2.664 1.08,1.152 2.016,2.52 2.808,4.104 l 5.112,-3.312 c -1.584,-3.312 -4.032,-5.976 -7.272,-8.064 -3.312,-2.016 -7.2,-3.096 -11.736,-3.096 -3.888,0 -7.272,0.792 -10.296,2.232 -3.096,1.512 -5.616,3.456 -7.704,5.904 -2.088,2.448 -3.672,5.184 -4.752,8.208 -0.792,2.16 -1.224,4.32 -1.44,6.408 h 6.552 c 0.216,-1.368 0.504,-2.736 0.936,-4.104 z m 31.248,18.36 c -0.72,1.584 -1.656,2.952 -2.808,4.104 -1.152,1.152 -2.376,2.088 -3.6,2.808 -1.368,0.72 -2.664,1.296 -4.104,1.584 -1.44,0.36 -2.808,0.504 -4.104,0.504 -2.592,0 -4.896,-0.504 -7.056,-1.656 -2.16,-1.08 -4.032,-2.592 -5.616,-4.464 -1.656,-1.872 -2.88,-3.96 -3.744,-6.408 -0.576,-1.512 -0.936,-3.024 -1.152,-4.68 h -6.552 c 0.288,2.16 0.792,4.248 1.584,6.336 1.152,3.168 2.808,5.976 4.968,8.424 2.16,2.448 4.68,4.464 7.632,5.976 2.88,1.584 6.12,2.304 9.648,2.304 1.944,0 3.96,-0.216 6.048,-0.792 2.016,-0.504 3.96,-1.224 5.832,-2.304 1.872,-0.936 3.528,-2.232 4.968,-3.672 1.44,-1.44 2.592,-3.168 3.456,-5.112 z" stroke-width="0" stroke-linejoin="miter" stroke-miterlimit="2" fill="#a5938e" stroke="#a5938e" transform="translate(0 327.44224) translate(443.95960559999986 11.001919999999991) scale(1.76) translate(-474.73325 51.408)" data-darkreader-inline-fill="" data-darkreader-inline-stroke=""></path>
        <path id="path77431" style="font-style: normal; font-weight: 500; font-size: 72px; line-height: 1; font-family: &quot;Raleway Medium Alt1&quot;; font-variant-ligatures: none; text-align: center; text-anchor: middle; --darkreader-inline-fill:#6c554f; --darkreader-inline-stroke:#a0988c;" d="m 550.10825,-44.136 -2.808,7.632 6.48,16.488 h -12.816 l -1.944,5.04 h 16.2 L 561.26825,0 h 6.912 z m -2.808,-6.984 h -5.472 L 520.87625,0 h 6.624 l 17.064,-43.632 z" stroke-width="0" stroke-linejoin="miter" stroke-miterlimit="2" fill="#9f837c" stroke="#9f837c" transform="translate(0 327.44224) translate(530.4512856 11.5088) scale(1.76) translate(-520.87625 51.12)" data-darkreader-inline-fill="" data-darkreader-inline-stroke=""></path>
        <path id="path77433" style="font-style: normal; font-weight: 500; font-size: 72px; line-height: 1; font-family: &quot;Raleway Medium Alt1&quot;; font-variant-ligatures: none; text-align: center; text-anchor: middle; --darkreader-inline-fill:#7a5a52; --darkreader-inline-stroke:#988f81;" d="M 575.07312,-5.76 V 0 h 34.992 v -5.76 z m 6.48001,-45.36 h -6.48001 v 38.88 h 6.48001 z" stroke-width="0" stroke-linejoin="miter" stroke-miterlimit="2" fill="#997167" stroke="#997167" transform="translate(0 327.44224) translate(631.1177768 11.5088) scale(1.76) translate(-575.07312 51.12)" data-darkreader-inline-fill="" data-darkreader-inline-stroke=""></path>
        <path id="path77435" style="font-style: normal; font-weight: 500; font-size: 72px; line-height: 1; font-family: &quot;Raleway Medium Alt1&quot;; font-variant-ligatures: none; text-align: center; text-anchor: middle; --darkreader-inline-fill:#6f3c2e; --darkreader-inline-stroke:#c78a7a;" d="M 617.12,-5.76 V 0 h 34.992 v -5.76 z m 6.48,-45.36 h -6.48 v 38.88 h 6.48 z" stroke-width="0" stroke-linejoin="miter" stroke-miterlimit="2" fill="#8b4b3a" stroke="#8b4b3a" transform="translate(0 327.44224) translate(710.4002856000001 11.5088) scale(1.76) translate(-617.12 51.12)" data-darkreader-inline-fill="" data-darkreader-inline-stroke=""></path>
      </g>
      <image xlink:href="" id="icon" style="display: none;" x="0" y="0"></image>
    </g>
  </g>
</svg>
